<svg width="17" height="19" viewBox="0 0 17 19" fill="none" xmlns="http://www.w3.org/2000/svg">
<path d="M11.6869 5.56238C11.6371 5.61467 11.5976 5.67689 11.5706 5.74543C11.5436 5.81398 11.5297 5.8875 11.5297 5.96176C11.5297 6.03601 11.5436 6.10954 11.5706 6.17808C11.5976 6.24663 11.6371 6.30884 11.6869 6.36113L14.1306 8.94863H1.625C1.4841 8.94863 1.34898 9.0079 1.24935 9.11339C1.14972 9.21887 1.09375 9.36195 1.09375 9.51113C1.09375 9.66032 1.14972 9.80339 1.24935 9.90888C1.34898 10.0144 1.4841 10.0736 1.625 10.0736H14.12L11.6869 12.6443C11.5879 12.7497 11.5324 12.8922 11.5324 13.0408C11.5324 13.1894 11.5879 13.332 11.6869 13.4374C11.7864 13.5421 11.9211 13.601 12.0614 13.601C12.2018 13.601 12.3364 13.5421 12.4359 13.4374L15.8147 9.85988C15.8602 9.81368 15.8963 9.75823 15.9211 9.69685C15.9458 9.63546 15.9585 9.56942 15.9585 9.5027C15.9585 9.43597 15.9458 9.36993 15.9211 9.30854C15.8963 9.24716 15.8602 9.19171 15.8147 9.14551L12.4412 5.56238C12.3919 5.50966 12.3331 5.46781 12.2684 5.43926C12.2036 5.4107 12.1342 5.396 12.0641 5.396C11.9939 5.396 11.9245 5.4107 11.8598 5.43926C11.795 5.46781 11.7363 5.50966 11.6869 5.56238Z" fill="#727272"/>
</svg>
