<svg width="360px" height="8px" viewBox="0 0 360 8" version="1.1"><title>soulignement</title><g id="ðŸ–¥ï¸-desktop" stroke="none" stroke-width="1" fill="none" fill-rule="evenodd"><g id="Fill-1" transform="translate(0.000200, 0.000119)" fill="#6B759A"><path d="M0,7.06067115 L0,0.861671145 C88.407,0.643671145 176.84,0.426671145 265.246,0.208671145 C288.449,0.154671145 311.659,0.099671145 334.861,0.045671145 L353.232,0.045671145 C354.76,0.045671145 359.227,-0.130328855 360,0.208671145 C357.315,0.262671145 351.943,0.534671145 351.943,0.534671145 L347.43,0.534671145 L344.208,0.697671145 C342.059,0.752671145 337.762,1.02467115 337.762,1.02467115 L334.539,1.02467115 C332.391,1.07867115 328.093,1.35067115 328.093,1.35067115 L322.936,1.35067115 C322.936,1.35067115 318.424,1.62267115 316.168,1.67667115 L312.623,1.83967115 L307.789,1.83967115 L302.31,2.16667115 L297.153,2.16667115 L291.674,2.49267115 C289.203,2.54667115 286.732,2.60167115 284.261,2.65567115 L280.716,2.65567115 C280.716,2.65567115 273.195,2.92767115 269.436,2.98167115 L263.635,3.14567115 L258.156,3.30867115 C256.589,3.53267115 253.799,3.21867115 252.032,3.47167115 C248.531,3.97167115 243.57,3.46867115 240.107,3.96067115 C235.918,4.01567115 231.727,4.06967115 227.538,4.12367115 C225.877,4.36167115 222.952,4.02167115 221.092,4.28767115 C217.22,4.83967115 211.442,4.22367115 207.556,4.77667115 C205.522,5.06567115 202.132,4.65667115 200.143,4.93967115 C198.19,5.21767115 195.13,4.85367115 193.375,5.10267115 C191.426,5.37967115 188.185,4.99567115 186.285,5.26567115 C181.451,5.32067115 176.615,5.37467115 171.782,5.42967115 C169.632,5.73567115 166.329,5.37267115 163.724,5.59267115 L163.402,5.59267115 L155.989,5.75567115 C155.989,5.75567115 155.962,5.89167115 155.345,5.91867115 C152.911,6.02467115 149.87,5.80667115 147.932,6.08167115 L138.908,6.08167115 L128.917,6.24467115 L118.281,6.40767115 L106.679,6.57067115 C104.807,6.83667115 101.663,6.73367115 99.266,6.73467115 C96.473,6.78867115 93.679,6.84267115 90.887,6.89767115 L81.218,7.06067115 L65.748,7.06067115 L60.913,7.06067115 C59.041,7.32567115 55.898,7.22367115 53.501,7.22367115 L39.964,7.22367115 L30.618,7.22367115 C29.544,7.27867115 28.469,7.33267115 27.395,7.38667115 C27.395,7.38667115 26.106,7.33267115 25.461,7.38667115 C21.91,7.09467115 16.979,7.22367115 12.892,7.22367115 C8.595,7.16967115 4.297,7.11467115 0,7.06067115"></path></g></g></svg>