<svg width="39" height="40" viewBox="0 0 39 40" fill="none" xmlns="http://www.w3.org/2000/svg">
<g clip-path="url(#clip0_344:3394)">
<path d="M35.3438 0.9729H3.65625C1.64531 0.9729 0 2.61821 0 4.62915V36.3167C0 38.3276 1.64531 39.9729 3.65625 39.9729H35.3438C37.3547 39.9729 39 38.3276 39 36.3167V4.62915C39 2.61821 37.3547 0.9729 35.3438 0.9729ZM31.5876 28.2729L28.0215 28.3265C28.0215 28.3265 27.2512 28.4801 26.247 27.7854C24.9137 26.8713 23.6559 24.4875 22.6736 24.7995C21.684 25.1115 21.7132 27.2516 21.7132 27.2516C21.7132 27.2516 21.7206 27.7098 21.4914 27.9512C21.2477 28.2168 20.7602 28.2705 20.7602 28.2705H19.1685C19.1685 28.2705 15.6487 28.485 12.5482 25.2528C9.165 21.7331 6.1815 14.7497 6.1815 14.7497C6.1815 14.7497 6.006 14.2914 6.19613 14.072C6.40819 13.821 6.981 13.8063 6.981 13.8063L10.7981 13.7844C10.7981 13.7844 11.1564 13.8453 11.4148 14.0355C11.6293 14.189 11.7414 14.484 11.7414 14.484C11.7414 14.484 12.3581 16.0464 13.1747 17.4553C14.7664 20.2048 15.5122 20.8068 16.0534 20.5168C16.8382 20.0902 16.6018 16.6241 16.6018 16.6241C16.6018 16.6241 16.6164 15.3663 16.2069 14.8106C15.8876 14.3767 15.2856 14.2475 15.0272 14.2158C14.8127 14.1842 15.1637 13.6893 15.6219 13.4627C16.3069 13.1263 17.5183 13.1043 18.9516 13.119C20.0631 13.1263 20.3921 13.2018 20.826 13.3018C22.1447 13.6211 21.6937 14.8472 21.6937 17.7892C21.6937 18.735 21.5256 20.0585 22.2032 20.4924C22.4932 20.6825 23.2074 20.5217 24.999 17.4845C25.8448 16.044 26.4834 14.3548 26.4834 14.3548C26.4834 14.3548 26.6199 14.0501 26.8344 13.9209C27.0562 13.7917 27.3536 13.8307 27.3536 13.8307L31.3682 13.8088C31.3682 13.8088 32.5723 13.665 32.7698 14.2134C32.9745 14.7838 32.3213 16.1171 30.6833 18.3035C27.9947 21.8915 27.69 21.5551 29.9301 23.627C32.0629 25.6087 32.5041 26.574 32.5821 26.6958C33.4498 28.1583 31.5924 28.2729 31.5924 28.2729H31.5876Z" fill="#3B5899"/>
</g>
<defs>
<clipPath id="clip0_344:3394">
<rect width="39" height="39" fill="white" transform="translate(0 0.9729)"/>
</clipPath>
</defs>
</svg>
