<svg width="39" height="40" viewBox="0 0 39 40" fill="none" xmlns="http://www.w3.org/2000/svg">
<path d="M38.1842 11.025C37.9639 10.1951 37.5294 9.43762 36.9242 8.82845C36.3191 8.21928 35.5645 7.7798 34.736 7.55402C31.6956 6.7334 19.5 6.7334 19.5 6.7334C19.5 6.7334 7.30437 6.7334 4.26237 7.55402C3.43429 7.7802 2.6801 8.21984 2.07525 8.82897C1.4704 9.4381 1.03609 10.1954 0.81575 11.025C0 14.0865 0 20.4728 0 20.4728C0 20.4728 0 26.859 0.81575 29.9205C1.03608 30.7505 1.47059 31.5079 2.07576 32.1171C2.68094 32.7263 3.43554 33.1658 4.264 33.3915C7.30438 34.2122 19.5 34.2122 19.5 34.2122C19.5 34.2122 31.6956 34.2122 34.7376 33.3915C35.5662 33.1659 36.3208 32.7265 36.926 32.1173C37.5312 31.5081 37.9657 30.7505 38.1859 29.9205C39 26.859 39 20.4728 39 20.4728C39 20.4728 39 14.0865 38.1842 11.025ZM15.5106 26.2708V14.6748L25.7042 20.4728L15.5106 26.2708Z" fill="#FB0000"/>
</svg>
