<svg width="39" height="40" viewBox="0 0 39 40" fill="none" xmlns="http://www.w3.org/2000/svg">
<g clip-path="url(#clip0_344:3398)">
<path d="M0 20.4729C0 9.70333 8.73043 0.9729 19.5 0.9729C30.2696 0.9729 39 9.70333 39 20.4729C39 31.2425 30.2696 39.9729 19.5 39.9729C8.73043 39.9729 0 31.2425 0 20.4729Z" fill="black"/>
<path fill-rule="evenodd" clip-rule="evenodd" d="M19.1054 0.9729C19.0133 8.99534 18.4886 13.4851 15.5004 16.4733C12.5122 19.4615 8.02244 19.9862 0 20.0783V21.2425C8.02244 21.3346 12.5122 21.8592 15.5004 24.8474C18.4418 27.7888 18.9962 32.1849 19.1007 39.9729H20.2743C20.3788 32.1849 20.9332 27.7888 23.8745 24.8474C26.8159 21.9061 31.212 21.3517 39 21.2472V20.0736C31.212 19.9691 26.8159 19.4147 23.8745 16.4733C20.8863 13.4851 20.3617 8.99534 20.2696 0.9729H19.1054Z" fill="white"/>
</g>
<defs>
<clipPath id="clip0_344:3398">
<rect width="39" height="39" fill="white" transform="translate(0 0.9729)"/>
</clipPath>
</defs>
</svg>
